<svg xmlns="http://www.w3.org/2000/svg" viewBox="0 0 128 128" role="img" aria-label="صورة رمزية بشعر بنفسجي طويل">
  <circle cx="64" cy="64" r="64" fill="#EDE4FB"/>
  <path d="M24 74c-4-34 15-56 40-56s44 22 40 56c-1 10-5 20-11 16 4-26-6-42-29-42s-33 16-29 42c-6 4-10-6-11-16z" fill="#7A57C2"/>
  <ellipse cx="64" cy="76" rx="27" ry="31" fill="#EFC19E"/>
  <path d="M37 64c-1-16 12-27 27-27s28 11 27 27c-2-9-4-16-27-16s-25 7-27 16z" fill="#7A57C2"/>
  <ellipse cx="54" cy="78" rx="3.2" ry="4" fill="#3B2A57"/>
  <ellipse cx="76" cy="78" rx="3.2" ry="4" fill="#3B2A57"/>
  <path d="M55 96q9 6 18 0" stroke="#B5744C" stroke-width="3" fill="none" stroke-linecap="round"/>
</svg>
